HIERARCHY
ROOT Hips
{
  OFFSET 0 0 0
  CHANNELS 6 Xposition Yposition Zposition Zrotation Xrotation Yrotation
  JOINT Spine
  {
    OFFSET 0.00000000 0.00000000 0.00000000
    CHANNELS 3 Zrotation Xrotation Yrotation
    JOINT Spine1
    {
      OFFSET 0.19000000 0.00000000 0.00000000
      CHANNELS 3 Zrotation Xrotation Yrotation
      JOINT Neck
      {
        OFFSET 0.22500000 0.00600000 0.00000000
        CHANNELS 3 Zrotation Xrotation Yrotation
        JOINT Head
        {
          OFFSET 0.14000000 0.00030878 0.00000000
          CHANNELS 3 Zrotation Xrotation Yrotation
          End Site
          {
            OFFSET 0.17000000 0.00000000 0.00000000
          }
        }
      }
      JOINT LeftShoulder
      {
        OFFSET 0.19800000 0.03700000 0.04300000
        CHANNELS 3 Zrotation Xrotation Yrotation
        JOINT LeftArm
        {
          OFFSET 0.08000000 0.00000000 0.00000000
          CHANNELS 3 Zrotation Xrotation Yrotation
          JOINT LeftForeArm
          {
            OFFSET 0.15200000 0.00000000 0.00000000
            CHANNELS 3 Zrotation Xrotation Yrotation
            JOINT LeftHand
            {
              OFFSET 0.17800000 0.00000000 0.00000000
              CHANNELS 3 Zrotation Xrotation Yrotation
              End Site
              {
                OFFSET 0.07200000 0.00000000 0.00000000
              }
            }
          }
        }
      }
      JOINT RightShoulder
      {
        OFFSET 0.19800000 0.03700000 -0.04300000
        CHANNELS 3 Zrotation Xrotation Yrotation
        JOINT RightArm
        {
          OFFSET 0.08000000 0.00000000 0.00151654
          CHANNELS 3 Zrotation Xrotation Yrotation
          JOINT RightForeArm
          {
            OFFSET 0.15200000 0.00000000 0.00000000
            CHANNELS 3 Zrotation Xrotation Yrotation
            JOINT RightHand
            {
              OFFSET 0.17800000 0.00000000 0.00000000
              CHANNELS 3 Zrotation Xrotation Yrotation
              End Site
              {
                OFFSET 0.07200000 0.00000000 0.00000000
              }
            }
          }
        }
      }
    }
  }
  JOINT LeftUpLeg
  {
    OFFSET 0.05984250 -0.07666000 0.04788790
    CHANNELS 3 Zrotation Xrotation Yrotation
    JOINT LeftLeg
    {
      OFFSET 0.16000000 0.00000000 0.00000000
      CHANNELS 3 Zrotation Xrotation Yrotation
      JOINT LeftFoot
      {
        OFFSET 0.18000000 0.00000000 0.00000000
        CHANNELS 3 Zrotation Xrotation Yrotation
        End Site
        {
          OFFSET 0.00000000 -0.10800000 0.00000000
        }
      }
    }
  }
  JOINT RightUpLeg
  {
    OFFSET 0.05984250 -0.07665980 -0.04788790
    CHANNELS 3 Zrotation Xrotation Yrotation
    JOINT RightLeg
    {
      OFFSET 0.16000000 0.00000000 0.00000000
      CHANNELS 3 Zrotation Xrotation Yrotation
      JOINT RightFoot
      {
        OFFSET 0.18000000 0.00000000 0.00000000
        CHANNELS 3 Zrotation Xrotation Yrotation
        End Site
        {
          OFFSET 0.00000000 -0.10800000 0.00000000
        }
      }
    }
  }
  JOINT Tail
  {
    OFFSET 0.06836960 -0.00722574 0.00000000
    CHANNELS 3 Zrotation Xrotation Yrotation
    JOINT Tail1
    {
      OFFSET 0.12000000 0.00000000 0.00000000
      CHANNELS 3 Zrotation Xrotation Yrotation
      End Site
      {
        OFFSET 0.12000000 0.00000000 0.00000000
      }
    }
  }
}
MOTION
Frames:	17
Frame Time:	0.0166667
-6.0133608 0.4484410 0.9427364 -8.97826 3.25395 5.48062 -160.639 -5.28207 -27.0753 -24.1607 -9.81692 28.5809 -18.4283 -26.5641 19.789 -92.2784 59.7586 104.694 -111.975 -40.5378 -134.967 120.313 -28.5028 -135.797 -79.5617 -28.374 14.8363 7.67249 1.984 -16.5161 81.0444 -19.212 35.7169 43.2982 -43.4656 -38.3074 -56.2782 -21.9783 3.65128 -13.738 2.42535 -5.81247 -141.568 5.94789 -17.3655 73.5176 13.8478 5.74419 46.267 -3.03774 -5.63484 -111.719 3.28496 -5.44115 82.7642 -10.2643 -4.07515 39.3549 1.4551 0.105029 -20.842 51.2318 -35.8138 7.50314 -28.8963 1.97898 
-6.0210520 0.4501680 0.9438127 -9.86977 2.43479 7.42856 -159.7 -5.37316 -25.7176 -24.0568 -10.3825 29.3361 -18.0398 -26.5757 20.8951 -91.9815 60.1016 104.451 -111.945 -40.4244 -135.087 118.292 -26.2227 -135.758 -77.1552 -26.419 13.4991 10.1548 1.49494 -14.2127 81.0625 -19.2204 35.8658 42.7721 -43.2748 -39.3608 -53.8687 -22.8777 4.5808 -13.4623 2.80671 -7.23269 -140.735 4.9092 -17.7454 66.4901 14.7351 8.25124 51.1631 -3.71641 -6.35389 -109.372 3.65791 -5.25027 82.5169 -8.89773 -4.15788 39.985 1.23123 -0.248638 -16.367 51.5376 -39.9784 8.81325 -26.84 2.02112 
-6.0279513 0.4514080 0.9455738 -10.6440 1.96431 9.35053 -158.995 -5.20781 -24.3732 -23.9181 -10.7695 30.1444 -17.7888 -26.4697 21.7205 -91.3036 60.3549 104.327 -111.92 -40.3446 -135.163 117.339 -26.1376 -135.908 -74.3458 -22.0455 10.7696 9.18261 1.44451 -15.6544 81.1104 -19.1896 36.0144 42.3149 -42.8946 -40.3036 -51.647 -23.3558 5.33447 -12.4231 3.14979 -8.89251 -139.845 3.68748 -18.0107 62.0593 14.2692 10.1037 54.9425 -4.15438 -6.72972 -107.271 4.23052 -5.76307 82.1025 -7.26272 -4.13788 40.8543 1.02517 -0.5846 -12.8078 51.6491 -43.0848 10.1238 -25.7133 2.00654 
-6.0336950 0.4521120 0.9480398 -11.3971 1.89293 11.0335 -158.854 -4.75723 -23.3953 -23.1869 -10.7682 31.0967 -17.6196 -26.4513 22.6665 -91.586 60.8466 104.147 -111.814 -40.1449 -135.249 118.649 -27.4445 -135.657 -70.33 -14.8661 7.46929 7.75178 1.14366 -14.016 81.098 -19.2477 36.208 41.8466 -42.278 -41.1887 -49.6924 -24.0005 5.86035 -11.7316 3.40355 -10.1653 -138.646 2.83808 -17.3586 60.332 12.2498 9.90249 56.4625 -4.02085 -6.50099 -105.519 5.01893 -6.50467 81.8263 -6.15143 -4.16509 41.9443 0.943798 -0.768394 -10.3995 51.3925 -44.6605 11.4224 -25.3382 1.93127 
-6.0383543 0.4519970 0.9507986 -12.4649 2.18706 12.1988 -158.945 -4.12137 -22.9865 -21.788 -10.3075 32.2384 -17.8626 -26.6508 23.6258 -91.6842 61.727 103.546 -111.595 -39.7433 -135.407 121.385 -29.504 -135.069 -65.6 -6.97618 4.02937 5.64634 0.675974 -10.824 80.9062 -19.5727 36.5333 40.8677 -42.1719 -42.0397 -48.1496 -24.2794 5.80502 -11.1792 3.36911 -10.2912 -137.247 2.44549 -16.6471 61.4506 10.5045 8.72099 54.6351 -3.68107 -6.14895 -104.043 5.9151 -7.04996 82.3602 -5.58395 -4.27147 42.4567 0.927865 -0.820988 -8.91168 50.8832 -44.6393 12.5318 -25.5265 1.76328 
-6.0428728 0.4509120 0.9538609 -13.8452 2.77434 12.9305 -158.962 -3.37502 -23.0664 -20.1805 -9.48543 33.4203 -18.5896 -26.9714 24.1571 -91.8458 61.9787 103.475 -111.343 -39.2658 -135.62 123.964 -32.0535 -134.061 -60.6248 -0.345447 0.340869 4.00429 0.35665 -8.96196 80.6865 -19.9487 36.9059 38.7927 -43.9925 -42.4983 -47.6203 -23.7113 4.61233 -10.9314 2.73511 -7.85167 -136.046 2.49946 -16.9774 63.9459 10.1761 8.25777 51.1851 -3.59915 -6.15673 -102.809 6.68267 -7.75655 83.4932 -5.47123 -4.35146 42.9518 0.977206 -0.7771 -8.33207 50.2357 -43.0938 13.3908 -26.4216 1.64176 
-6.0481159 0.4490710 0.9573161 -15.0249 3.83765 13.6357 -159.182 -2.41961 -23.1992 -18.7789 -8.46299 34.4818 -19.0982 -27.5742 24.7815 -93.2347 61.5739 103.892 -111.066 -38.7311 -135.876 125.617 -34.676 -132.549 -55.7582 4.38121 -3.70249 3.07385 0.165783 -7.46288 80.5638 -20.1879 37.2304 36.3526 -46.8972 -42.9378 -47.8049 -23.0053 3.22518 -11.0083 1.97205 -4.73364 -135.343 3.07419 -18.3388 65.4887 10.902 8.48905 49.2439 -3.72051 -6.35406 -102.385 7.36655 -9.12721 84.9899 -5.23654 -4.32281 44.6989 1.06544 -0.778372 -8.58373 49.5043 -40.92 13.8873 -28.0882 1.64263 
-6.0538046 0.4469730 0.9606358 -15.7387 4.80990 14.5137 -159.434 -1.57136 -23.1944 -17.7349 -7.68628 35.508 -19.3725 -28.3005 25.4278 -95.1774 60.7931 104.516 -110.704 -38.0981 -136.101 126.381 -36.9362 -131.741 -51.4158 7.19694 -6.25295 2.63414 0.0744685 -7.01672 80.4674 -20.3676 37.4445 35.8838 -48.3616 -43.2061 -48.4419 -22.9785 2.77529 -11.1665 1.6463 -3.4629 -135.378 3.88584 -19.5375 67.6358 11.9842 8.41836 47.3958 -3.81986 -6.54143 -103.242 8.02706 -10.2525 87.1606 -4.90577 -4.30374 47.2491 1.12482 -0.859571 -9.55033 49.3699 -38.5553 13.8752 -30.4867 1.69779 
-6.0598441 0.4451070 0.9632599 -16.1415 5.08212 15.3285 -159.372 -1.22067 -23.2437 -16.873 -7.37494 36.5174 -19.6375 -28.9158 25.9079 -97.4555 59.4536 105.633 -110.365 -37.5095 -136.307 125.376 -39.667 -132.488 -50.8519 9.99362 -6.28684 0.0168478 0.558291 -10.7784 80.3113 -20.6434 37.7172 37.687 -48.7387 -42.8021 -49.9263 -23.2097 2.84461 -11.0364 1.69887 -3.86145 -135.596 4.44774 -19.8536 70.4186 13.0672 7.9451 45.0149 -3.8685 -6.71036 -104.922 8.31464 -10.5888 89.8583 -5.29636 -4.29739 49.9931 1.22646 -0.876306 -11.2835 50.1102 -35.3974 13.4025 -33.5775 1.7611 
-6.0666432 0.4431610 0.9650180 -16.2287 4.74802 16.0913 -159.136 -1.30246 -23.4738 -16.1863 -7.50277 37.624 -19.469 -29.5339 26.7095 -99.8486 58.2317 106.569 -110.351 -37.3631 -136.542 121.718 -39.9629 -132.038 -52.834 11.7691 -7.24202 -2.32903 1.01825 -13.3155 80.1022 -21.0051 38.0386 38.8315 -50.3128 -41.9626 -51.721 -22.4916 2.42436 -10.7528 1.51339 -3.29559 -135.674 4.4793 -19.761 72.4561 14.0562 7.63046 43.2277 -3.90715 -6.83868 -107.445 8.10152 -10.6449 93.2304 -5.99295 -4.21076 52.4601 1.31525 -0.895033 -13.7428 51.7258 -31.6766 12.66 -37.4337 1.96801 
-6.0737721 0.4411880 0.9658885 -16.0314 3.89335 16.9667 -158.73 -1.70555 -23.6627 -15.7979 -8.03436 38.7289 -18.8593 -30.0404 27.5861 -101.839 57.0741 107.291 -110.572 -37.5724 -136.727 118.501 -38.4489 -130.085 -54.1573 12.4686 -9.22433 -2.60263 1.0508 -12.7735 80.0342 -21.1726 38.3371 39.0431 -52.7547 -40.6551 -53.5912 -21.4044 1.44584 -10.941 1.21239 -2.00496 -135.818 4.142 -19.306 74.2929 14.9171 7.45381 41.7315 -3.95782 -6.98564 -110.596 7.61032 -10.2133 96.6815 -6.4825 -4.12085 54.0961 1.28197 -0.980209 -16.725 54.0014 -27.5921 11.8668 -42.0642 2.51801 
-6.0807148 0.4391130 0.9660048 -15.7786 2.62068 18.0178 -158.086 -2.2326 -23.5073 -15.5925 -8.71544 39.5761 -18.1708 -30.4632 28.1453 -103.182 55.4964 107.999 -110.852 -37.9391 -136.769 118.014 -39.1555 -128.333 -54.9269 14.4927 -10.2396 -2.8921 1.11379 -13.371 80.0026 -21.3055 38.6895 39.9332 -54.8307 -39.0726 -55.3538 -20.76 0.581473 -11.7097 1.05583 -1.08794 -135.912 3.4573 -18.5159 75.9321 15.617 7.26129 40.3991 -3.98893 -7.09157 -113.69 7.15537 -9.09593 100.121 -6.08671 -4.06036 52.7135 0.97251 -1.13671 -19.8246 56.6031 -23.3327 11.1218 -47.1941 3.38392 
-6.0872001 0.4368230 0.9653660 -15.5312 1.27984 19.0847 -157.474 -2.72009 -23.1235 -15.3718 -9.31205 40.1068 -17.365 -30.8028 28.8018 -103.625 54.3434 108.312 -111.149 -38.3136 -136.838 117.855 -40.5013 -126.844 -56.0553 16.1625 -10.9103 -2.3499 1.16453 -14.3274 79.9243 -21.5213 39.1075 41.0739 -56.5585 -37.7754 -56.608 -19.8671 -0.054055 -12.6471 0.724457 0.365785 -136.211 2.70645 -17.3674 77.797 15.6273 6.78481 39.2921 -3.91497 -7.04136 -116.586 6.61496 -7.7603 103.483 -5.9253 -4.06611 46.9095 0.496937 -1.20153 -23.2626 59.397 -18.9061 10.7535 -52.7573 4.69808 
-6.0929214 0.4346520 0.9643274 -15.4859 0.09089 20.1341 -157.013 -3.01925 -22.5873 -14.9973 -9.64734 40.3829 -16.7136 -30.8461 29.2034 -103.647 53.6611 108.484 -111.333 -38.5514 -136.869 116.655 -40.3752 -124.762 -56.6362 17.5662 -12.3902 -2.31189 1.13868 -14.0245 79.8776 -21.6816 39.4728 42.0201 -57.8332 -36.7312 -57.2572 -18.8498 -0.557881 -13.2796 0.490722 1.37139 -136.556 2.17709 -16.5484 79.7059 16.0546 6.33951 38.6512 -3.91545 -7.07979 -119.298 6.06018 -6.27518 106.307 -7.42157 -4.20183 39.1498 0.107149 -1.09844 -27.1 62.0213 -14.0237 11.0577 -58.7363 6.66313 
-6.0976774 0.4324380 0.9633947 -15.7324 -0.82268 21.1633 -156.763 -3.06359 -21.856 -14.4611 -9.65936 40.3508 -16.2636 -30.629 29.1579 -103.659 52.7843 108.883 -111.419 -38.6979 -136.819 115.054 -39.3502 -122.353 -56.2559 18.5498 -14.3497 -3.05837 1.06953 -12.6722 79.9318 -21.6471 39.6276 42.9488 -58.6138 -35.4497 -57.5067 -18.3868 -1.10137 -13.9595 0.533622 1.50942 -136.752 1.63536 -16.5521 81.4545 16.7251 6.17389 37.9224 -3.93063 -7.1141 -121.872 5.81656 -4.57009 109.011 -8.2788 -4.29128 30.8118 -0.344818 -1.1678 -31.4821 64.3198 -8.46554 12.4207 -65.1138 9.59145 
-6.1015953 0.4303340 0.9627029 -16.2301 -1.40029 21.9916 -156.894 -2.929 -21.2424 -13.429 -9.28873 40.1777 -15.9076 -30.3045 29.3172 -103.134 52.5439 109.051 -111.562 -38.914 -136.787 113.769 -38.4659 -120.709 -56.0693 18.4394 -15.3239 -3.85578 1.10508 -12.0666 79.9584 -21.6304 39.7046 43.4739 -58.8743 -34.5632 -57.3381 -18.1284 -1.58352 -14.7585 0.578555 1.66081 -136.816 1.32116 -16.81 83.2351 16.9322 5.91754 37.0818 -3.85941 -7.02657 -124.301 5.83031 -2.7626 110.824 -7.61929 -4.25433 24.5454 -0.794165 -1.46245 -37.0185 66.1502 -1.6781 15.9388 -71.8225 14.5268 
-6.1051540 0.4283480 0.9622879 -16.7614 -1.82836 22.7118 -157.335 -2.74054 -20.6594 -12.0959 -8.78214 39.9487 -15.6305 -29.8069 29.5422 -102.673 52.952 109.08 -111.652 -39.0471 -136.772 113.175 -37.9513 -120.101 -55.7212 18.3041 -15.3321 -4.80269 1.15455 -11.9412 79.9454 -21.6521 39.7182 43.3867 -58.9997 -34.2426 -56.7613 -17.5733 -1.94438 -15.3229 0.481745 2.18876 -136.81 1.31083 -17.0038 84.9912 17.2096 5.51619 36.1732 -3.78304 -6.93541 -126.822 6.06438 -0.432894 110.924 -6.34952 -4.26423 21.2224 -1.11349 -1.82593 -44.0143 67.7243 6.41554 25.2802 -78.5597 25.1408 
